<svg width="14" height="14" viewBox="0 0 14 14" fill="none" xmlns="http://www.w3.org/2000/svg">
<path d="M13.404 2.22675C13.4034 1.80476 13.2361 1.40009 12.9385 1.10087C12.641 0.801651 12.2372 0.632106 11.8152 0.629152L7.90324 0.603552C7.69164 0.602121 7.48185 0.642677 7.28604 0.722872C7.09022 0.803068 6.91225 0.921309 6.76244 1.07075L1.41684 6.40195C1.26797 6.55044 1.14983 6.72682 1.06917 6.921C0.988518 7.11518 0.946926 7.32336 0.946778 7.53362C0.946629 7.74389 0.987926 7.95212 1.06831 8.14641C1.14869 8.34071 1.26658 8.51725 1.41524 8.66595L5.37444 12.626C5.67448 12.9259 6.08137 13.0944 6.50564 13.0944C6.9299 13.0944 7.33679 12.9259 7.63684 12.626L12.9416 7.32035C13.0905 7.17153 13.2085 6.99479 13.289 6.80026C13.3694 6.60574 13.4107 6.39725 13.4104 6.18675L13.404 2.22675ZM10.1992 4.60035C9.98706 4.60035 9.78358 4.51607 9.63355 4.36604C9.48352 4.21601 9.39924 4.01253 9.39924 3.80035C9.39924 3.58818 9.48352 3.3847 9.63355 3.23467C9.78358 3.08464 9.98706 3.00035 10.1992 3.00035C10.4114 3.00035 10.6149 3.08464 10.7649 3.23467C10.915 3.3847 10.9992 3.58818 10.9992 3.80035C10.9992 4.01253 10.915 4.21601 10.7649 4.36604C10.6149 4.51607 10.4114 4.60035 10.1992 4.60035Z" fill="#9497A1"/>
</svg>
